#!OML:ASF H:\IndianDance\Patient Classification 1\Patient 1\Session 1\dancer.ASF
:FULLY-SPECIFIED
:DEGREES
4219
root 3.8725 15.339 -4.62092 -172.037 5.6341 -537.571
lowerback 7.09822 2.33798 -0.157706
upperback -6.70274 3.3717 -0.396106
thorax -11.1661 1.72586 -0.920187
lowerneck -17.0681 -2.88039 -3.6869
upperneck 13.7433 -3.79379 4.21161
head 7.16557 -1.65207 1.55095
rclavicle -1.3244e-014 -8.34896e-015
rhumerus -18.4645 -29.2602 -36.6587
rradius 73.8017
rwrist -90.6312
rhand -25.1129 -8.28607
rfingers 7.12502
rthumb 1.40257 -38.2612
lclavicle -1.3244e-014 -8.34896e-015
lhumerus -4.04755 26.6428 22.7282
lradius 47.9246
lwrist 50.5901
lhand -24.8681 29.1696
lfingers 7.12502
lthumb 1.63894 1859.14
rfemur -48.3196 -30.1522 25.1136
rtibia 72.2226
rfoot 10.8278 11.9754
rtoes -13.248
lfemur -34.3816 32.8439 -21.618
ltibia 58.2715
lfoot -7.48524 -4.43835
ltoes -18.473
4220
root 3.88265 15.3115 -4.60221 -171.986 5.3851 -537.629
lowerback 7.04925 2.30334 -0.387631
upperback -6.68214 3.29969 -0.361541
thorax -11.1293 1.71155 -0.739719
lowerneck -16.9644 -2.88708 -3.83832
upperneck 13.6006 -3.80168 4.42518
head 7.10924 -1.64672 1.64542
rclavicle 1.86236e-014 1.98785e-015
rhumerus -16.235 -29.346 -37.6225
rradius 70.592
rwrist -89.8366
rhand -24.3532 -8.52411
rfingers 7.12502
rthumb 2.13626 -38.4932
lclavicle 1.86236e-014 1.98785e-015
lhumerus -2.35485 26.5081 23.6487
lradius 46.3487
lwrist 51.7929
lhand -22.3464 29.3491
lfingers 7.12502
lthumb 4.07423 1859.29
rfemur -48.8888 -30.7462 25.7414
rtibia 72.7414
rfoot 10.7052 13.9386
rtoes -15.3343
lfemur -35.0448 33.1374 -21.6562
ltibia 59.0127
lfoot -7.2798 -5.27954
ltoes -17.5598
4221
root 3.89824 15.2865 -4.58435 -172.003 4.9592 -537.512
lowerback 7.04708 2.20087 -0.414374
upperback -6.6644 3.15752 -0.352545
thorax -11.1102 1.64545 -0.690798
lowerneck -16.8511 -2.85621 -3.64222
upperneck 13.5339 -3.83406 4.53952
head 7.06847 -1.64584 1.64796
rclavicle -7.47927e-015 9.93923e-015
rhumerus -14.1738 -29.5702 -38.822
rradius 67.4718
rwrist -88.2583
rhand -23.5526 -8.85305
rfingers 7.12502
rthumb 2.90943 -38.8129
lclavicle -7.47927e-015 9.93923e-015
lhumerus -0.354805 26.8445 24.6981
lradius 44.6406
lwrist 53.0689
lhand -20.3953 32.5343
lfingers 7.12502
lthumb 5.95813 1862.43
rfemur -49.1441 -31.2731 26.5106
rtibia 72.8703
rfoot 11.5534 13.8005
rtoes -13.6638
lfemur -35.6595 33.3318 -21.3962
ltibia 59.8524
lfoot -6.99184 -6.22396
ltoes -17.6446
4222
root 3.9084 15.2596 -4.56519 -172.067 4.4135 -537.555
lowerback 7.14603 2.14096 -0.500016
upperback -6.65268 3.06287 -0.36226
thorax -11.1612 1.60487 -0.642154
lowerneck -16.743 -2.95706 -3.88695
upperneck 13.4788 -3.9872 4.93079
head 7.05257 -1.70125 1.79893
rclavicle 5.24295e-015 1.47101e-014
rhumerus -12.2136 -29.8777 -39.7292
rradius 64.3417
rwrist -86.3703
rhand -22.8571 -9.39091
rfingers 7.12502
rthumb 3.58106 -39.3406
lclavicle 5.24295e-015 1.47101e-014
lhumerus 1.84506 26.9886 26.1713
lradius 43.015
lwrist 54.4065
lhand -18.6114 34.9019
lfingers 7.12502
lthumb 7.68027 1864.74
rfemur -49.165 -31.9046 27.0791
rtibia 72.6063
rfoot 12.5368 12.7375
rtoes -11.6533
lfemur -36.2988 33.3897 -21.3007
ltibia 60.7617
lfoot -6.55263 -7.19062
ltoes -17.4514
4223
root 3.92552 15.2363 -4.54825 -172.233 3.72596 -537.333
lowerback 7.31409 2.00331 -0.270568
upperback -6.62248 2.90146 -0.337003
thorax -11.2185 1.50714 -0.722493
lowerneck -16.8413 -2.99801 -3.75544
upperneck 13.7159 -4.07872 4.88147
head 7.14701 -1.74156 1.75003
rclavicle 3.15074e-014 5.1684e-015
rhumerus -10.2727 -30.1174 -40.799
rradius 61.3346
rwrist -84.2921
rhand -22.6863 -9.53095
rfingers 7.12502
rthumb 3.74604 -39.4778
lclavicle 3.15074e-014 5.1684e-015
lhumerus 3.7718 26.2022 26.9801
lradius 41.4763
lwrist 56.2613
lhand -18.1066 35.5077
lfingers 7.12502
lthumb 8.16741 1865.33
rfemur -48.7284 -32.3894 27.7831
rtibia 71.9627
rfoot 13.0003 11.2017
rtoes -8.28748
lfemur -36.8629 33.5032 -20.8178
ltibia 61.747
lfoot -6.01984 -8.26186
ltoes -17.6089
4224
root 3.94006 15.2159 -4.53078 -172.422 2.97827 -537.256
lowerback 7.44968 1.88798 -0.00751596
upperback -6.56093 2.76156 -0.426713
thorax -11.2141 1.41121 -0.945753
lowerneck -16.9543 -3.14108 -3.97108
upperneck 13.9464 -4.30205 5.24228
head 7.2653 -1.82759 1.87633
rclavicle 2.5345e-015 5.1684e-015
rhumerus -8.56334 -29.8501 -41.4729
rradius 58.4872
rwrist -83.1246
rhand -22.5835 -9.88402
rfingers 7.12502
rthumb 3.84534 -39.8291
lclavicle 2.5345e-015 5.1684e-015
lhumerus 6.36717 27.2939 29.1272
lradius 39.5253
lwrist 55.4652
lhand -16.6899 35.3331
lfingers 7.12502
lthumb 9.53458 1865.1
rfemur -48.0679 -32.9034 28.2139
rtibia 71.2428
rfoot 11.8541 10.239
rtoes -1.00096
lfemur -37.4755 33.6018 -20.5197
ltibia 62.7646
lfoot -5.25861 -9.32744
ltoes -17.1488
4225
root 3.9557 15.1884 -4.50967 -172.636 2.21245 -537.221
lowerback 7.6731 1.79526 0.167555
upperback -6.51795 2.64547 -0.486579
thorax -11.2913 1.33443 -1.09621
lowerneck -17.0071 -3.31105 -4.2858
upperneck 14.1107 -4.54063 5.62606
head 7.35695 -1.92476 2.02521
rclavicle 5.18083e-014 -1.15295e-014
rhumerus -6.88093 -30.3277 -42.2485
rradius 55.7466
rwrist -81.9307
rhand -22.1247 -10.593
rfingers 7.12502
rthumb 4.28833 -40.5296
lclavicle 5.18083e-014 -1.15295e-014
lhumerus 8.83761 27.4871 30.918
lradius 37.5731
lwrist 55.0439
lhand -14.8158 35.1759
lfingers 7.12502
lthumb 11.3424 1864.85
rfemur -47.2077 -33.528 28.5365
rtibia 70.7427
rfoot 9.28961 10.6896
rtoes -4.82474
lfemur -38.1725 33.7251 -20.2849
ltibia 63.8415
lfoot -4.42059 -10.3007
ltoes -17.6935
4226
root 3.9715 15.1676 -4.48822 -172.896 1.46872 -537.168
lowerback 7.92455 1.68396 0.35597
upperback -6.45775 2.50561 -0.534624
thorax -11.3676 1.24476 -1.2373
lowerneck -17.1035 -3.38526 -4.40301
upperneck 14.3514 -4.65236 5.75734
head 7.46455 -1.97118 2.07351
rclavicle 1.71203e-014 -8.74653e-015
rhumerus -5.25177 -30.4731 -43.0275
rradius 53.3133
rwrist -81.1635
rhand -22.1375 -11.027
rfingers 7.12502
rthumb 4.27601 -40.9638
lclavicle 1.71203e-014 -8.74653e-015
lhumerus 11.2971 27.9263 32.8269
lradius 35.5265
lwrist 53.6967
lhand -13.0133 35.0026
lfingers 7.12502
lthumb 13.0804 1864.57
rfemur -46.3077 -34.0066 28.71
rtibia 70.328
rfoot 8.08132 11.3373
rtoes -10.7172
lfemur -38.8092 33.8392 -19.9901
ltibia 64.8926
lfoot -3.47138 -11.1649
ltoes -17.6206
4227
root 3.98882 15.1501 -4.46696 -173.115 0.774323 -537.089
lowerback 8.17408 1.60482 0.56377
upperback -6.4237 2.41719 -0.566234
thorax -11.4726 1.17967 -1.38098
lowerneck -17.3696 -3.4599 -4.36616
upperneck 14.7662 -4.74999 5.60317
head 7.64711 -2.02315 2.00253
rclavicle 2.33572e-015 -4.77083e-015
rhumerus -3.74488 -30.564 -43.7
rradius 51.1457
rwrist -80.6309
rhand -22.1233 -11.4936
rfingers 7.12502
rthumb 4.28969 -41.4301
lclavicle 2.33572e-015 -4.77083e-015
lhumerus 13.6324 28.36 34.9827
lradius 33.8862
lwrist 52.5103
lhand -11.9253 34.7407
lfingers 7.12502
lthumb 14.129 1864.24
rfemur -45.5133 -34.2953 28.8095
rtibia 69.9046
rfoot 5.80259 11.5722
rtoes -14.6813
lfemur -39.5018 33.9316 -19.6751
ltibia 65.9202
lfoot -2.43485 -11.8084
ltoes -16.8539
4228
root 4.0046 15.1293 -4.44791 -173.344 0.183869 -537.122
lowerback 8.37884 1.57035 0.667971
upperback -6.38771 2.37148 -0.648786
thorax -11.5497 1.14156 -1.52722
lowerneck -17.2443 -3.57994 -4.66094
upperneck 14.7477 -4.91962 5.96959
head 7.64609 -2.09124 2.15248
rclavicle -2.84014e-014 -9.93923e-015
rhumerus -2.3152 -30.8267 -44.3838
rradius 49.1491
rwrist -80.2838
rhand -21.9029 -12.5145
rfingers 7.12502
rthumb 4.5025 -42.4466
lclavicle -2.84014e-014 -9.93923e-015
lhumerus 16.0865 28.9464 37.3846
lradius 32.3885
lwrist 51.2889
lhand -8.96204 35.1588
lfingers 7.12502
lthumb 16.983 1864.44
rfemur -44.767 -34.4884 28.6456
rtibia 69.4818
rfoot 4.50228 11.5335
rtoes -12.2581
lfemur -40.1443 34.0511 -19.4942
ltibia 66.924
lfoot -1.701 -12.2218
ltoes -17.2291
4229
root 4.01818 15.1109 -4.4299 -173.511 -0.323447 -537.131
lowerback 8.46246 1.83256 0.811043
upperback -6.33047 2.30977 -0.735714
thorax -11.5249 0.918368 -1.65533
lowerneck -17.2554 -3.67817 -4.76753
upperneck 14.8206 -5.06149 6.10979
head 7.68698 -2.15244 2.19892
rclavicle 2.73329e-016 -1.03368e-014
rhumerus -0.946988 -31.0072 -45.0329
rradius 47.4162
rwrist -79.8507
rhand -22.3875 -12.735
rfingers 7.12502
rthumb 4.03458 -42.6765
lclavicle 2.73329e-016 -1.03368e-014
lhumerus 18.3507 29.2257 39.6926
lradius 31.2681
lwrist 50.9348
lhand -7.42476 35.3028
lfingers 7.12502
lthumb 18.4623 1864.45
rfemur -44.2696 -34.6633 28.4368
rtibia 69.267
rfoot 3.69119 11.5523
rtoes -9.81695
lfemur -40.7896 34.143 -19.3355
ltibia 67.8716
lfoot -1.28182 -12.6445
ltoes -19.3473
4230
root 4.02659 15.0818 -4.41462 -173.606 -0.746762 -537.047
lowerback 8.40833 1.85526 1.02558
upperback -6.28448 2.36901 -0.780214
thorax -11.4272 0.931066 -1.83125
lowerneck -17.3213 -3.77814 -4.81783
upperneck 14.9369 -5.21043 6.19764
head 7.7495 -2.2172 2.21731
rclavicle 5.72997e-014 6.75868e-015
rhumerus 0.39947 -31.0959 -45.5785
rradius 45.6463
rwrist -78.9884
rhand -21.5732 -14.4655
rfingers 7.12502
rthumb 4.82092 -44.3906
lclavicle 5.72997e-014 6.75868e-015
lhumerus 20.2374 28.7256 41.4705
lradius 30.4714
lwrist 51.6221
lhand -6.90521 35.4431
lfingers 7.12502
lthumb 18.962 1864.54
rfemur -44.0529 -34.9598 28.452
rtibia 69.2477
rfoot 3.15151 11.9118
rtoes -10.8962
lfemur -41.4994 34.2824 -19.1766
ltibia 68.8241
lfoot -1.14724 -12.7777
ltoes -20.1909
4231
root 4.0295 15.0525 -4.39949 -173.64 -1.0572 -536.875
lowerback 8.29494 1.85504 1.28599
upperback -6.27298 2.40677 -0.74645
thorax -11.3347 0.932124 -1.94251
lowerneck -17.3808 -3.81132 -4.91377
upperneck 15.1103 -5.26433 6.30011
head 7.82604 -2.23788 2.25984
rclavicle 2.70099e-014 3.18055e-015
rhumerus 1.8135 -30.8849 -46.2254
rradius 44.1387
rwrist -78.1066
rhand -21.4901 -15.8731
rfingers 7.12502
rthumb 4.90111 -45.7964
lclavicle 2.70099e-014 3.18055e-015
lhumerus 22.1684 29.016 43.7347
lradius 29.5705
lwrist 50.8104
lhand -6.1423 35.7063
lfingers 7.12502
lthumb 19.6956 1864.73
rfemur -44.1425 -35.2477 28.5881
rtibia 69.4306
rfoot 2.87443 12.3073
rtoes -10.8066
lfemur -42.1928 34.437 -19.0318
ltibia 69.717
lfoot -1.2522 -12.5323
ltoes -20.7193
4232
root 4.02626 15.0246 -4.38694 -173.674 -1.22943 -536.687
lowerback 8.14299 1.89024 1.56497
upperback -6.25994 2.49527 -0.688275
thorax -11.2151 0.957793 -2.04482
lowerneck -17.3535 -3.8516 -5.00849
upperneck 15.1552 -5.33335 6.45044
head 7.84754 -2.26387 2.31702
rclavicle 1.2598e-014 1.98785e-015
rhumerus 3.27009 -30.6887 -46.8674
rradius 42.6185
rwrist -76.5834
rhand -21.1657 -17.2548
rfingers 7.12502
rthumb 5.21432 -47.1707
lclavicle 1.2598e-014 1.98785e-015
lhumerus 23.5366 28.4338 45.2589
lradius 28.9318
lwrist 50.5368
lhand -5.76832 36.0315
lfingers 7.12502
lthumb 20.0551 1865.02
rfemur -44.3857 -35.5946 28.7543
rtibia 69.7552
rfoot 2.86882 12.7103
rtoes -10.1108
lfemur -42.7554 34.6416 -18.9221
ltibia 70.5215
lfoot -1.64285 -12.0084
ltoes -21.1126
